<?xml version="1.0" encoding="UTF-8" standalone="no"?>
<!DOCTYPE svg PUBLIC "-//W3C//DTD SVG 1.1//EN"
 "http://www.w3.org/Graphics/SVG/1.1/DTD/svg11.dtd">
<!-- Generated by graphviz version 2.40.1 (20161225.0304)
 -->
<!-- Title: syscalls Pages: 1 -->
<svg width="148pt" height="412pt"
 viewBox="0.00 0.00 148.00 412.00" xmlns="http://www.w3.org/2000/svg" xmlns:xlink="http://www.w3.org/1999/xlink">
<g id="graph0" class="graph" transform="scale(1 1) rotate(0) translate(4 408)">
<title>syscalls</title>
<polygon fill="#ffffff" stroke="transparent" points="-4,4 -4,-408 144,-408 144,4 -4,4"/>
<g id="clust1" class="cluster">
<title>cluster_kernelspace</title>
<polygon fill="#f0e68c" stroke="#000000" points="16,-102 16,-177 105,-177 105,-102 16,-102"/>
<text text-anchor="middle" x="60.5" y="-161.8" font-family="Times,serif" font-size="14.00" fill="#000000">Kernel Space</text>
</g>
<g id="clust2" class="cluster">
<title>cluster_userspace</title>
<polygon fill="#add8e6" stroke="#000000" points="11,-196 11,-396 109,-396 109,-196 11,-196"/>
<text text-anchor="middle" x="60" y="-380.8" font-family="Times,serif" font-size="14.00" fill="#000000">User Space</text>
</g>
<g id="clust3" class="cluster">
<title>cluster_hardware</title>
<polygon fill="#ff6a6a" stroke="#000000" points="8,-8 8,-83 112,-83 112,-8 8,-8"/>
<text text-anchor="middle" x="60" y="-67.8" font-family="Times,serif" font-size="14.00" fill="#000000">Hardware</text>
</g>
<!-- kernel -->
<g id="node1" class="node">
<title>kernel</title>
<ellipse fill="none" stroke="#000000" cx="60" cy="-128" rx="32.4942" ry="18"/>
<text text-anchor="middle" x="60" y="-124.3" font-family="Times,serif" font-size="14.00" fill="#000000">kernel</text>
</g>
<!-- hardware -->
<g id="node4" class="node">
<title>hardware</title>
<ellipse fill="none" stroke="#000000" cx="60" cy="-34" rx="43.5923" ry="18"/>
<text text-anchor="middle" x="60" y="-30.3" font-family="Times,serif" font-size="14.00" fill="#000000">hardware</text>
</g>
<!-- kernel&#45;&gt;hardware -->
<g id="edge4" class="edge">
<title>kernel&#45;&gt;hardware</title>
<path fill="none" stroke="#000000" d="M60,-109.8759C60,-96.3516 60,-77.6192 60,-62.1514"/>
<polygon fill="#000000" stroke="#000000" points="63.5001,-62.0685 60,-52.0685 56.5001,-62.0685 63.5001,-62.0685"/>
</g>
<!-- program -->
<g id="node2" class="node">
<title>program</title>
<ellipse fill="none" stroke="#000000" cx="60" cy="-347" rx="40.8928" ry="18"/>
<text text-anchor="middle" x="60" y="-343.3" font-family="Times,serif" font-size="14.00" fill="#000000">program</text>
</g>
<!-- program&#45;&gt;kernel -->
<g id="edge1" class="edge">
<title>program&#45;&gt;kernel</title>
<path fill="none" stroke="#000000" d="M70.3018,-329.3082C85.4211,-301.0823 110.5369,-244.1342 98,-196 94.0502,-180.8352 85.8906,-165.4668 78.1415,-153.1862"/>
<polygon fill="#000000" stroke="#000000" points="81.0635,-151.2595 72.6375,-144.8367 75.2191,-155.1122 81.0635,-151.2595"/>
<text text-anchor="middle" x="118.5" y="-261.8" font-family="Times,serif" font-size="14.00" fill="#000000">syscalls</text>
</g>
<!-- glibc -->
<g id="node3" class="node">
<title>glibc</title>
<ellipse fill="none" stroke="#000000" cx="60" cy="-222" rx="28.6953" ry="18"/>
<text text-anchor="middle" x="60" y="-218.3" font-family="Times,serif" font-size="14.00" fill="#000000">glibc</text>
</g>
<!-- program&#45;&gt;glibc -->
<g id="edge2" class="edge">
<title>program&#45;&gt;glibc</title>
<path fill="none" stroke="#000000" d="M60,-328.8239C60,-308.2723 60,-274.5472 60,-250.4893"/>
<polygon fill="#000000" stroke="#000000" points="63.5001,-250.198 60,-240.198 56.5001,-250.198 63.5001,-250.198"/>
</g>
<!-- glibc&#45;&gt;kernel -->
<g id="edge3" class="edge">
<title>glibc&#45;&gt;kernel</title>
<path fill="none" stroke="#000000" d="M60,-203.8759C60,-190.3516 60,-171.6192 60,-156.1514"/>
<polygon fill="#000000" stroke="#000000" points="63.5001,-156.0685 60,-146.0685 56.5001,-156.0685 63.5001,-156.0685"/>
</g>
</g>
</svg>
