<?xml version="1.0" encoding="UTF-8" standalone="no"?>
<!DOCTYPE svg PUBLIC "-//W3C//DTD SVG 1.1//EN"
 "http://www.w3.org/Graphics/SVG/1.1/DTD/svg11.dtd">
<!-- Generated by graphviz version 2.40.1 (20161225.0304)
 -->
<!-- Title: linux_task_states Pages: 1 -->
<svg width="338pt" height="218pt"
 viewBox="0.00 0.00 338.30 218.00" xmlns="http://www.w3.org/2000/svg" xmlns:xlink="http://www.w3.org/1999/xlink">
<g id="graph0" class="graph" transform="scale(1 1) rotate(0) translate(4 214)">
<title>linux_task_states</title>
<polygon fill="#ffffff" stroke="transparent" points="-4,4 -4,-214 334.2964,-214 334.2964,4 -4,4"/>
<!-- running -->
<g id="node1" class="node">
<title>running</title>
<ellipse fill="none" stroke="#000000" cx="137.2964" cy="-192" rx="38.1938" ry="18"/>
<text text-anchor="middle" x="137.2964" y="-188.3" font-family="Times,serif" font-size="14.00" fill="#000000">running</text>
</g>
<!-- sleeping -->
<g id="node2" class="node">
<title>sleeping</title>
<ellipse fill="none" stroke="#000000" cx="40.2964" cy="-105" rx="40.0939" ry="18"/>
<text text-anchor="middle" x="40.2964" y="-101.3" font-family="Times,serif" font-size="14.00" fill="#000000">sleeping</text>
</g>
<!-- running&#45;&gt;sleeping -->
<g id="edge1" class="edge">
<title>running&#45;&gt;sleeping</title>
<path fill="none" stroke="#000000" d="M115.1335,-176.8458C98.8536,-163.7088 77.1106,-144.4626 61.1527,-129.1959"/>
<polygon fill="#000000" stroke="#000000" points="63.4382,-126.536 53.8328,-122.0652 58.5536,-131.5502 63.4382,-126.536"/>
</g>
<!-- stopped -->
<g id="node3" class="node">
<title>stopped</title>
<ellipse fill="none" stroke="#000000" cx="137.2964" cy="-105" rx="38.1938" ry="18"/>
<text text-anchor="middle" x="137.2964" y="-101.3" font-family="Times,serif" font-size="14.00" fill="#000000">stopped</text>
</g>
<!-- running&#45;&gt;stopped -->
<g id="edge4" class="edge">
<title>running&#45;&gt;stopped</title>
<path fill="none" stroke="#000000" d="M131.7037,-173.9735C130.4855,-162.1918 130.2291,-146.5607 130.9343,-133.1581"/>
<polygon fill="#000000" stroke="#000000" points="134.4381,-133.2399 131.7061,-123.0034 127.4582,-132.7093 134.4381,-133.2399"/>
</g>
<!-- zombie -->
<g id="node4" class="node">
<title>zombie</title>
<ellipse fill="none" stroke="#000000" cx="230.2964" cy="-105" rx="37.0935" ry="18"/>
<text text-anchor="middle" x="230.2964" y="-101.3" font-family="Times,serif" font-size="14.00" fill="#000000">zombie</text>
</g>
<!-- running&#45;&gt;zombie -->
<g id="edge5" class="edge">
<title>running&#45;&gt;zombie</title>
<path fill="none" stroke="#000000" d="M154.789,-175.636C169.1682,-162.1845 189.709,-142.9689 205.7373,-127.9747"/>
<polygon fill="#000000" stroke="#000000" points="208.2848,-130.3843 213.1965,-120.9967 203.5027,-125.2724 208.2848,-130.3843"/>
<text text-anchor="middle" x="240.7964" y="-144.8" font-family="Times,serif" font-size="14.00" fill="#000000">Process calls exit()</text>
</g>
<!-- sleeping&#45;&gt;running -->
<g id="edge2" class="edge">
<title>sleeping&#45;&gt;running</title>
<path fill="none" stroke="#000000" d="M62.4151,-120.1185C78.6558,-133.2209 100.3502,-152.4196 116.3106,-167.6803"/>
<polygon fill="#000000" stroke="#000000" points="114.0292,-170.344 123.6361,-174.8116 118.9121,-165.3282 114.0292,-170.344"/>
</g>
<!-- stopped&#45;&gt;running -->
<g id="edge3" class="edge">
<title>stopped&#45;&gt;running</title>
<path fill="none" stroke="#000000" d="M142.8868,-123.0034C144.1062,-134.7801 144.3639,-150.4102 143.6599,-163.8156"/>
<polygon fill="#000000" stroke="#000000" points="140.1559,-163.7374 142.8892,-173.9735 147.1358,-164.2671 140.1559,-163.7374"/>
</g>
<!-- deleted -->
<g id="node5" class="node">
<title>deleted</title>
<text text-anchor="middle" x="230.2964" y="-14.3" font-family="Times,serif" font-size="14.00" fill="#000000">(deleted)</text>
</g>
<!-- zombie&#45;&gt;deleted -->
<g id="edge6" class="edge">
<title>zombie&#45;&gt;deleted</title>
<path fill="none" stroke="#000000" d="M230.2964,-86.9735C230.2964,-75.1918 230.2964,-59.5607 230.2964,-46.1581"/>
<polygon fill="#000000" stroke="#000000" points="233.7965,-46.0033 230.2964,-36.0034 226.7965,-46.0034 233.7965,-46.0033"/>
<text text-anchor="middle" x="280.2964" y="-57.8" font-family="Times,serif" font-size="14.00" fill="#000000">Parent calls wait()</text>
</g>
</g>
</svg>
